<svg width="194" height="63" viewBox="0 0 194 63" fill="none" xmlns="http://www.w3.org/2000/svg">
<g filter="url(#filter0_d_2160_222)">
<path d="M20.932 36.308C20.26 36.308 19.616 36.2147 19 36.028C18.384 35.8413 17.824 35.5893 17.32 35.272C16.8347 34.9547 16.424 34.5907 16.088 34.18C15.7707 33.7507 15.556 33.312 15.444 32.864L16.424 32.528L16.172 35.972H12V15.28H16.508V24.688L15.584 24.352C15.696 23.8667 15.9107 23.4187 16.228 23.008C16.5454 22.5787 16.9467 22.2053 17.432 21.888C17.9174 21.552 18.4494 21.2907 19.028 21.104C19.6067 20.9173 20.204 20.824 20.82 20.824C22.108 20.824 23.2467 21.16 24.236 21.832C25.244 22.4853 26.0374 23.4 26.616 24.576C27.1947 25.7333 27.484 27.0587 27.484 28.552C27.484 30.064 27.1947 31.408 26.616 32.584C26.056 33.7413 25.2814 34.656 24.292 35.328C23.3027 35.9813 22.1827 36.308 20.932 36.308ZM19.756 32.528C20.428 32.528 21.016 32.36 21.52 32.024C22.024 31.688 22.4067 31.2307 22.668 30.652C22.948 30.0547 23.088 29.3547 23.088 28.552C23.088 27.768 22.948 27.0773 22.668 26.48C22.4067 25.8827 22.024 25.4253 21.52 25.108C21.016 24.7907 20.428 24.632 19.756 24.632C19.0654 24.632 18.468 24.7907 17.964 25.108C17.46 25.4253 17.068 25.8827 16.788 26.48C16.508 27.0773 16.368 27.768 16.368 28.552C16.368 29.3547 16.508 30.0547 16.788 30.652C17.068 31.2307 17.46 31.688 17.964 32.024C18.468 32.36 19.0654 32.528 19.756 32.528ZM30.6817 36V21.132H35.1617V36H30.6817ZM32.9217 18.192C32.0817 18.192 31.419 17.996 30.9337 17.604C30.467 17.1933 30.2337 16.6147 30.2337 15.868C30.2337 15.196 30.4764 14.6453 30.9617 14.216C31.447 13.7867 32.1004 13.572 32.9217 13.572C33.7617 13.572 34.415 13.7773 34.8817 14.188C35.3484 14.58 35.5817 15.14 35.5817 15.868C35.5817 16.5587 35.339 17.1187 34.8537 17.548C34.387 17.9773 33.743 18.192 32.9217 18.192ZM46.1751 42.44C44.9618 42.44 43.7485 42.2627 42.5351 41.908C41.3405 41.5533 40.3698 41.096 39.6231 40.536L41.1911 37.4C41.5831 37.6613 42.0125 37.8853 42.4791 38.072C42.9645 38.2773 43.4685 38.436 43.9911 38.548C44.5138 38.66 45.0458 38.716 45.5871 38.716C46.5391 38.716 47.3138 38.576 47.9111 38.296C48.5085 38.016 48.9565 37.5867 49.2551 37.008C49.5538 36.448 49.7031 35.7387 49.7031 34.88V32.388L50.5711 32.528C50.4405 33.144 50.1138 33.704 49.5911 34.208C49.0871 34.712 48.4618 35.1227 47.7151 35.44C46.9685 35.7387 46.1751 35.888 45.3351 35.888C43.9911 35.888 42.7871 35.58 41.7231 34.964C40.6778 34.3293 39.8471 33.4613 39.2311 32.36C38.6338 31.24 38.3351 29.952 38.3351 28.496C38.3351 27.0027 38.6338 25.6867 39.2311 24.548C39.8285 23.3907 40.6498 22.4853 41.6951 21.832C42.7405 21.16 43.9165 20.824 45.2231 20.824C45.7831 20.824 46.3151 20.8893 46.8191 21.02C47.3418 21.1507 47.8178 21.328 48.2471 21.552C48.6951 21.7573 49.0871 22.0093 49.4231 22.308C49.7778 22.588 50.0578 22.896 50.2631 23.232C50.4871 23.568 50.6365 23.9133 50.7111 24.268L49.7871 24.492L49.9551 21.132H54.2111V34.796C54.2111 36.0093 54.0245 37.0827 53.6511 38.016C53.2965 38.968 52.7645 39.7707 52.0551 40.424C51.3645 41.096 50.5245 41.6 49.5351 41.936C48.5458 42.272 47.4258 42.44 46.1751 42.44ZM46.2871 32.416C47.0151 32.416 47.6405 32.2573 48.1631 31.94C48.7045 31.604 49.1151 31.1467 49.3951 30.568C49.6938 29.9893 49.8431 29.308 49.8431 28.524C49.8431 27.74 49.6938 27.0587 49.3951 26.48C49.1151 25.8827 48.7045 25.4253 48.1631 25.108C47.6405 24.772 47.0151 24.604 46.2871 24.604C45.5778 24.604 44.9618 24.772 44.4391 25.108C43.9165 25.4253 43.5058 25.8827 43.2071 26.48C42.9271 27.0587 42.7871 27.74 42.7871 28.524C42.7871 29.308 42.9271 29.9893 43.2071 30.568C43.5058 31.1467 43.9165 31.604 44.4391 31.94C44.9618 32.2573 45.5778 32.416 46.2871 32.416ZM65.1016 36.28C63.5523 36.28 62.1709 35.944 60.9576 35.272C59.7629 34.6 58.8109 33.6853 58.1016 32.528C57.4109 31.3707 57.0656 30.0453 57.0656 28.552C57.0656 27.0587 57.4109 25.7333 58.1016 24.576C58.8109 23.4187 59.7629 22.504 60.9576 21.832C62.1709 21.16 63.5523 20.824 65.1016 20.824C66.6509 20.824 68.0229 21.16 69.2176 21.832C70.4309 22.504 71.3829 23.4187 72.0736 24.576C72.7643 25.7333 73.1096 27.0587 73.1096 28.552C73.1096 30.0453 72.7643 31.3707 72.0736 32.528C71.3829 33.6853 70.4309 34.6 69.2176 35.272C68.0229 35.944 66.6509 36.28 65.1016 36.28ZM65.1016 32.416C65.7736 32.416 66.3709 32.248 66.8936 31.912C67.4163 31.576 67.8269 31.1187 68.1256 30.54C68.4243 29.9613 68.5643 29.2987 68.5456 28.552C68.5643 27.8053 68.4243 27.1427 68.1256 26.564C67.8269 25.9667 67.4163 25.5 66.8936 25.164C66.3709 24.828 65.7736 24.66 65.1016 24.66C64.4296 24.66 63.8229 24.828 63.2816 25.164C62.7589 25.5 62.3483 25.9667 62.0496 26.564C61.7509 27.1427 61.6109 27.8053 61.6296 28.552C61.6109 29.2987 61.7509 29.9613 62.0496 30.54C62.3483 31.1187 62.7589 31.576 63.2816 31.912C63.8229 32.248 64.4296 32.416 65.1016 32.416ZM81.6671 36.308C80.3791 36.308 79.2311 35.9813 78.2231 35.328C77.2338 34.656 76.4498 33.7413 75.8711 32.584C75.2924 31.408 75.0031 30.0733 75.0031 28.58C75.0031 27.0867 75.2924 25.7613 75.8711 24.604C76.4498 23.428 77.2431 22.504 78.2511 21.832C79.2591 21.16 80.4164 20.824 81.7231 20.824C82.3951 20.824 83.0391 20.9267 83.6551 21.132C84.2711 21.3373 84.8311 21.6173 85.3351 21.972C85.8391 22.3267 86.2498 22.7373 86.5671 23.204C86.8844 23.652 87.0711 24.1187 87.1271 24.604L86.0631 24.856V15.28H90.5711V36H86.3991L86.1471 32.612L87.0431 32.752C86.9871 33.2187 86.8004 33.6667 86.4831 34.096C86.1844 34.5253 85.7924 34.908 85.3071 35.244C84.8218 35.5613 84.2618 35.8133 83.6271 36C83.0111 36.2053 82.3578 36.308 81.6671 36.308ZM82.8151 32.584C83.5058 32.584 84.1031 32.416 84.6071 32.08C85.1111 31.744 85.4938 31.2773 85.7551 30.68C86.0351 30.0827 86.1751 29.3827 86.1751 28.58C86.1751 27.7587 86.0351 27.0493 85.7551 26.452C85.4938 25.8547 85.1111 25.388 84.6071 25.052C84.1031 24.716 83.5058 24.548 82.8151 24.548C82.1244 24.548 81.5271 24.716 81.0231 25.052C80.5378 25.388 80.1551 25.8547 79.8751 26.452C79.5951 27.0493 79.4551 27.7587 79.4551 28.58C79.4551 29.3827 79.5951 30.0827 79.8751 30.68C80.1551 31.2773 80.5378 31.744 81.0231 32.08C81.5271 32.416 82.1244 32.584 82.8151 32.584ZM101.443 36.28C99.8007 36.28 98.3727 35.9533 97.1594 35.3C95.9461 34.628 95.0034 33.7227 94.3314 32.584C93.6594 31.4267 93.3234 30.1107 93.3234 28.636C93.3234 27.4973 93.5101 26.452 93.8834 25.5C94.2567 24.548 94.7794 23.7267 95.4514 23.036C96.1234 22.3267 96.9167 21.7853 97.8314 21.412C98.7647 21.02 99.7821 20.824 100.883 20.824C101.929 20.824 102.881 21.0107 103.739 21.384C104.617 21.7573 105.373 22.28 106.007 22.952C106.642 23.624 107.127 24.4173 107.463 25.332C107.799 26.2467 107.949 27.2453 107.911 28.328L107.883 29.532H96.0394L95.3954 27.012H104.243L103.767 27.544V26.984C103.73 26.5173 103.581 26.1067 103.319 25.752C103.077 25.3787 102.75 25.0893 102.339 24.884C101.929 24.6787 101.462 24.576 100.939 24.576C100.211 24.576 99.5861 24.7253 99.0634 25.024C98.5594 25.304 98.1767 25.724 97.9154 26.284C97.6541 26.8253 97.5234 27.4973 97.5234 28.3C97.5234 29.1213 97.6914 29.84 98.0274 30.456C98.3821 31.0533 98.8861 31.52 99.5394 31.856C100.211 32.192 101.005 32.36 101.919 32.36C102.554 32.36 103.114 32.2667 103.599 32.08C104.103 31.8933 104.645 31.576 105.223 31.128L107.323 34.096C106.745 34.6 106.129 35.0107 105.475 35.328C104.822 35.6453 104.15 35.8787 103.459 36.028C102.787 36.196 102.115 36.28 101.443 36.28Z" fill="#3B44F6"/>
<path d="M117.626 36.28C116.487 36.28 115.442 36.14 114.49 35.86C113.538 35.5613 112.679 35.1227 111.914 34.544C111.148 33.9653 110.467 33.2653 109.87 32.444L112.25 29.756C113.164 31.0253 114.06 31.9027 114.938 32.388C115.815 32.8733 116.804 33.116 117.906 33.116C118.54 33.116 119.119 33.0227 119.642 32.836C120.164 32.6307 120.575 32.36 120.874 32.024C121.172 31.6693 121.322 31.268 121.322 30.82C121.322 30.5027 121.256 30.2133 121.126 29.952C121.014 29.672 120.836 29.4293 120.594 29.224C120.351 29 120.052 28.7947 119.698 28.608C119.343 28.4213 118.942 28.2627 118.494 28.132C118.046 28.0013 117.551 27.88 117.01 27.768C115.983 27.5627 115.087 27.292 114.322 26.956C113.556 26.6013 112.912 26.172 112.39 25.668C111.867 25.1453 111.484 24.5667 111.242 23.932C110.999 23.2787 110.878 22.5413 110.878 21.72C110.878 20.8987 111.055 20.1427 111.41 19.452C111.783 18.7613 112.287 18.164 112.922 17.66C113.556 17.156 114.294 16.764 115.134 16.484C115.974 16.204 116.879 16.064 117.85 16.064C118.951 16.064 119.931 16.1947 120.79 16.456C121.667 16.7173 122.432 17.1093 123.086 17.632C123.758 18.136 124.308 18.752 124.738 19.48L122.33 21.86C121.956 21.2813 121.536 20.8053 121.07 20.432C120.603 20.04 120.099 19.7507 119.558 19.564C119.016 19.3587 118.447 19.256 117.85 19.256C117.178 19.256 116.59 19.3493 116.086 19.536C115.6 19.7227 115.218 19.9933 114.938 20.348C114.658 20.684 114.518 21.0947 114.518 21.58C114.518 21.9533 114.602 22.2893 114.77 22.588C114.938 22.868 115.171 23.12 115.47 23.344C115.787 23.568 116.188 23.764 116.674 23.932C117.159 24.1 117.71 24.2493 118.326 24.38C119.352 24.5853 120.276 24.8653 121.098 25.22C121.919 25.556 122.619 25.9667 123.198 26.452C123.776 26.9187 124.215 27.46 124.514 28.076C124.812 28.6733 124.962 29.3453 124.962 30.092C124.962 31.38 124.654 32.4907 124.038 33.424C123.44 34.3387 122.591 35.048 121.49 35.552C120.388 36.0373 119.1 36.28 117.626 36.28ZM129.944 36V17.492H133.388V36H129.944ZM127.032 24.436V21.244H136.608V24.436H127.032ZM145.842 36.28C144.368 36.28 143.052 35.9533 141.894 35.3C140.737 34.628 139.822 33.7133 139.15 32.556C138.478 31.3987 138.142 30.0827 138.142 28.608C138.142 27.1333 138.478 25.8173 139.15 24.66C139.822 23.5027 140.737 22.5973 141.894 21.944C143.052 21.272 144.368 20.936 145.842 20.936C147.298 20.936 148.605 21.272 149.762 21.944C150.92 22.5973 151.825 23.5027 152.478 24.66C153.15 25.8173 153.486 27.1333 153.486 28.608C153.486 30.0827 153.15 31.3987 152.478 32.556C151.825 33.7133 150.92 34.628 149.762 35.3C148.605 35.9533 147.298 36.28 145.842 36.28ZM145.842 33.228C146.645 33.228 147.354 33.0227 147.97 32.612C148.605 32.2013 149.1 31.6507 149.454 30.96C149.828 30.2693 150.005 29.4853 149.986 28.608C150.005 27.712 149.828 26.9187 149.454 26.228C149.1 25.5373 148.605 24.996 147.97 24.604C147.354 24.1933 146.645 23.988 145.842 23.988C145.04 23.988 144.312 24.1933 143.658 24.604C143.024 24.996 142.529 25.5467 142.174 26.256C141.82 26.9467 141.642 27.7307 141.642 28.608C141.642 29.4853 141.82 30.2693 142.174 30.96C142.529 31.6507 143.024 32.2013 143.658 32.612C144.312 33.0227 145.04 33.228 145.842 33.228ZM156.567 36V21.244H159.955L160.011 25.948L159.535 24.884C159.74 24.1373 160.095 23.4653 160.599 22.868C161.103 22.2707 161.682 21.804 162.335 21.468C163.007 21.1133 163.707 20.936 164.435 20.936C164.752 20.936 165.051 20.964 165.331 21.02C165.63 21.076 165.872 21.1413 166.059 21.216L165.135 24.996C164.93 24.884 164.678 24.7907 164.379 24.716C164.08 24.6413 163.782 24.604 163.483 24.604C163.016 24.604 162.568 24.6973 162.139 24.884C161.728 25.052 161.364 25.2947 161.047 25.612C160.73 25.9293 160.478 26.3027 160.291 26.732C160.123 27.1427 160.039 27.6093 160.039 28.132V36H156.567ZM174.639 36.28C173.09 36.28 171.718 35.9533 170.523 35.3C169.347 34.6467 168.423 33.76 167.751 32.64C167.098 31.5013 166.771 30.204 166.771 28.748C166.771 27.5907 166.958 26.536 167.331 25.584C167.705 24.632 168.218 23.8107 168.871 23.12C169.543 22.4107 170.337 21.8693 171.251 21.496C172.185 21.104 173.202 20.908 174.303 20.908C175.274 20.908 176.179 21.0947 177.019 21.468C177.859 21.8413 178.587 22.3547 179.203 23.008C179.819 23.6427 180.286 24.408 180.603 25.304C180.939 26.1813 181.098 27.1427 181.079 28.188L181.051 29.392H169.095L168.451 27.04H178.167L177.719 27.516V26.9C177.663 26.3213 177.477 25.8173 177.159 25.388C176.842 24.94 176.431 24.5947 175.927 24.352C175.442 24.0907 174.901 23.96 174.303 23.96C173.389 23.96 172.614 24.1373 171.979 24.492C171.363 24.8467 170.897 25.36 170.579 26.032C170.262 26.6853 170.103 27.5067 170.103 28.496C170.103 29.448 170.299 30.2787 170.691 30.988C171.102 31.6973 171.671 32.248 172.399 32.64C173.146 33.0133 174.014 33.2 175.003 33.2C175.694 33.2 176.329 33.088 176.907 32.864C177.486 32.64 178.111 32.2387 178.783 31.66L180.491 34.04C179.987 34.5067 179.409 34.908 178.755 35.244C178.121 35.5613 177.449 35.8133 176.739 36C176.03 36.1867 175.33 36.28 174.639 36.28Z" fill="#F5F4F9"/>
</g>
<defs>
<filter id="filter0_d_2160_222" x="-2.43719" y="-4" width="197" height="75" filterUnits="userSpaceOnUse" color-interpolation-filters="sRGB">
<feFlood flood-opacity="0" result="BackgroundImageFix"/>
<feColorMatrix in="SourceAlpha" type="matrix" values="0 0 0 0 0 0 0 0 0 0 0 0 0 0 0 0 0 0 127 0" result="hardAlpha"/>
<feOffset dy="8"/>
<feGaussianBlur stdDeviation="6"/>
<feComposite in2="hardAlpha" operator="out"/>
<feColorMatrix type="matrix" values="0 0 0 0 0.55 0 0 0 0 0.55 0 0 0 0 0.55 0 0 0 0.15 0"/>
<feBlend mode="normal" in2="BackgroundImageFix" result="effect1_dropShadow_2160_222"/>
<feBlend mode="normal" in="SourceGraphic" in2="effect1_dropShadow_2160_222" result="shape"/>
</filter>
</defs>
</svg>
